HIERARCHY
ROOT Hips
{
	OFFSET 0.000000 0.000000 0.000000
	CHANNELS 6 Xposition Yposition Zposition Zrotation Yrotation Xrotation 
	JOINT LHipJoint
	{
		OFFSET 0.000000 0.000000 0.000000
		CHANNELS 3 Zrotation Yrotation Xrotation
		JOINT LeftUpLeg
		{
			OFFSET 1.363060 -1.794630 0.839290
			CHANNELS 3 Zrotation Yrotation Xrotation
			JOINT LeftLeg
			{
				OFFSET 2.448110 -6.726130 0.000000
				CHANNELS 3 Zrotation Yrotation Xrotation
				JOINT LeftFoot
				{
					OFFSET 2.562200 -7.039590 0.000000
					CHANNELS 3 Zrotation Yrotation Xrotation
					JOINT LeftToeBase
					{
						OFFSET 0.157640 -0.433110 2.322550
						CHANNELS 3 Zrotation Yrotation Xrotation
						End Site
						{
							OFFSET 0.000000 0.000000 0.000000
						}
					}
				}
			}
		}
	}
	JOINT RHipJoint
	{
		OFFSET 0.000000 0.000000 0.000000
		CHANNELS 3 Zrotation Yrotation Xrotation
		JOINT RightUpLeg
		{
			OFFSET -1.305520 -1.794630 0.839290
			CHANNELS 3 Zrotation Yrotation Xrotation
			JOINT RightLeg
			{
				OFFSET -2.542530 -6.985550 0.000000
				CHANNELS 3 Zrotation Yrotation Xrotation
				JOINT RightFoot
				{
					OFFSET -2.568260 -7.056230 0.000000
					CHANNELS 3 Zrotation Yrotation Xrotation
					JOINT RightToeBase
					{
						OFFSET -0.164730 -0.452590 2.363150
						CHANNELS 3 Zrotation Yrotation Xrotation
						End Site
						{
							OFFSET 0.000000 0.000000 0.000000
						}
					}
				}
			}
		}
	}
}
MOTION
Frames: 30
Frame Time: 0.008333
-8.988688 16.659676 -2.315860 73.726913 85.150205 98.643593 -8.058733 -0.367500 0.299376 -13.053950 -6.043547 -47.783196 -2.499695 1.155253 27.867037 0.440972 1.815298 -0.716692 0.514100 0.000000 -30.564301 11.628439 -1.979708 -3.693069 4.368254 -6.142700 -8.332839 0.856216 -2.700611 33.862294 0.601374 9.958311 9.741642 2.757600 0.000001 -81.779700
-8.805014 16.645724 -2.292199 68.325877 84.501099 93.042048 -7.959655 -0.270020 0.112322 -13.717740 -5.871952 -47.430847 -2.476863 1.263882 29.520734 0.577930 2.456680 -1.989465 0.512000 -0.000000 -30.602800 11.914748 -1.858517 -3.744662 3.367183 -6.474744 -9.374752 0.547627 -2.903818 36.644843 0.444497 9.861475 11.847802 3.147001 -0.000000 -81.947600
-8.626128 16.639332 -2.270741 63.618167 83.845078 88.139865 -7.867866 -0.179640 -0.085257 -14.346823 -5.629566 -46.907603 -2.470198 1.337221 30.820169 0.725418 3.140335 -3.297444 0.482400 0.000000 -31.053500 12.172739 -1.711290 -3.788616 2.459559 -6.706381 -10.512000 0.245993 -3.088602 39.479249 0.246896 9.488660 14.047754 3.462400 -0.000001 -81.064600
-8.451362 16.639969 -2.251779 59.534864 83.199599 83.869431 -7.788702 -0.096344 -0.284352 -14.920439 -5.336180 -46.231172 -2.476179 1.378722 31.772714 0.876397 3.832190 -4.566476 0.424801 0.000000 -31.813200 12.396345 -1.542111 -3.829413 1.666704 -6.865502 -11.726621 -0.035692 -3.254230 42.326412 0.015168 8.796309 16.214660 3.630600 -0.000001 -79.251200
-8.279957 16.647021 -2.235735 55.981427 82.589763 80.139595 -7.730750 -0.023029 -0.477546 -15.410452 -5.002773 -45.434660 -2.489682 1.393931 32.411085 1.021500 4.490128 -5.729669 0.344600 0.000000 -32.759300 12.577570 -1.359180 -3.870839 1.020118 -6.974546 -13.003491 -0.288553 -3.402568 45.146484 -0.242508 7.737863 18.218977 3.575900 0.000000 -76.751900
-8.111118 16.659767 -2.222151 52.899172 82.022053 76.893140 -7.693785 0.043547 -0.657480 -15.816405 -4.649415 -44.545170 -2.507509 1.388114 32.769713 1.152544 5.085953 -6.726005 0.253700 0.000000 -33.771200 12.720151 -1.166461 -3.916880 0.514706 -7.068187 -14.333843 -0.510331 -3.537619 47.910855 -0.517660 6.295127 19.939498 3.246000 -0.000000 -73.872300
-7.944046 16.677557 -2.210909 50.208081 81.516690 74.056671 -7.683665 0.101349 -0.820199 -16.122431 -4.279930 -43.607394 -2.525096 1.368493 32.906963 1.260577 5.584803 -7.514699 0.165100 -0.000000 -34.754400 12.821005 -0.972510 -3.968496 0.171141 -7.157298 -15.708370 -0.702718 -3.662877 50.584806 -0.803597 4.458600 21.274705 2.613400 0.000000 -70.910101
-7.778165 16.699794 -2.201267 47.866459 81.078931 71.592121 -7.699491 0.152654 -0.963157 -16.333895 -3.901280 -42.656691 -2.540016 1.341429 32.877452 1.339768 5.967671 -8.069643 0.091900 -0.000000 -35.650600 12.884785 -0.781470 -4.025907 -0.015953 -7.256632 -17.122141 -0.870654 -3.781593 53.141484 -1.094692 2.264813 22.146440 1.698000 0.000000 -68.065201
-7.612999 16.725952 -2.192334 45.845426 80.711418 69.474599 -7.739038 0.199725 -1.086056 -16.461295 -3.516166 -41.725944 -2.550888 1.312651 32.735192 1.387135 6.224553 -8.384769 0.043400 -0.000000 -36.439600 12.916637 -0.596528 -4.087926 -0.056040 -7.372977 -18.570311 -1.019535 -3.895943 55.554231 -1.385947 -0.210467 22.502297 0.563900 -0.000000 -65.422199
-7.448278 16.755678 -2.183258 44.121014 80.415398 67.682399 -7.800252 0.243934 -1.190878 -16.515230 -3.121766 -40.842479 -2.557149 1.287027 32.530574 1.402561 6.353437 -8.473288 0.023200 0.000000 -37.131200 12.920461 -0.420586 -4.152484 0.041736 -7.505249 -20.046098 -1.153708 -4.006782 57.795272 -1.672152 -2.856211 22.318915 -0.688100 0.000000 -62.964100
-7.283921 16.788653 -2.173173 42.676855 80.188463 66.199836 -7.879946 0.286715 -1.280832 -16.509773 -2.714987 -40.023260 -2.559230 1.267745 32.302110 1.388849 6.362047 -8.362431 0.029900 -0.000001 -37.756600 12.900195 -0.255476 -4.217115 0.262843 -7.648681 -21.541593 -1.275544 -4.113888 59.836547 -1.946968 -5.532371 21.605523 -1.934000 -0.000000 -60.610700
-7.119912 16.824754 -2.161427 41.496888 80.025720 65.009379 -7.975418 0.328697 -1.360152 -16.457175 -2.292163 -39.274162 -2.558130 1.256382 32.074796 1.350925 6.265612 -8.089173 0.057900 -0.000000 -38.358300 12.858367 -0.102700 -4.279853 0.590973 -7.795462 -23.045957 -1.385233 -4.216226 61.651962 -2.202147 -8.085062 20.399752 -3.046500 0.000001 -58.184600
-6.956421 16.863727 -2.147404 40.563092 79.919128 64.091196 -8.082348 0.370705 -1.431983 -16.370084 -1.853407 -38.594220 -2.554963 1.252747 31.860587 1.295158 6.086630 -7.691437 0.100400 -0.000000 -38.995600 12.798321 0.037598 -4.336154 1.006271 -7.931795 -24.550086 -1.480852 -4.311200 63.215540 -2.430271 -10.378410 18.792748 -3.926200 0.000001 -55.790800
-6.793484 16.905555 -2.130940 39.850804 79.861909 63.415889 -8.199784 0.411817 -1.500220 -16.253275 -1.399937 -37.968912 -2.550743 1.255535 31.656089 1.227757 5.847968 -7.206057 0.150100 0.000001 -39.714600 12.719879 0.164524 -4.385979 1.491988 -8.049740 -26.039335 -1.559027 -4.396949 64.510870 -2.620303 -12.286095 16.870958 -4.503400 0.000000 -53.175101
-6.631196 16.950037 -2.111930 39.330462 79.845296 62.949878 -8.325473 0.451637 -1.566551 -16.110783 -0.937504 -37.381450 -2.546134 1.262406 31.449099 1.154532 5.573868 -6.660740 0.202000 0.000000 -40.565300 12.624172 0.278575 -4.427170 2.029696 -8.140012 -27.503504 -1.615665 -4.470923 65.525944 -2.763721 -13.728966 14.756986 -4.762800 0.000000 -50.394400
-6.469558 16.996925 -2.090481 38.967166 79.861260 62.653828 -8.458264 0.489425 -1.631648 -15.942597 -0.474278 -36.811130 -2.541354 1.270650 31.220858 1.080029 5.285169 -6.073896 0.252801 0.000000 -41.582100 12.511624 0.380469 -4.459072 2.603485 -8.197740 -28.933053 -1.646941 -4.531253 66.257184 -2.853259 -14.666936 12.572436 -4.733100 -0.000000 -47.498100
-6.308514 17.045921 -2.066887 38.721603 79.902957 62.483788 -8.597446 0.524434 -1.695068 -15.746415 -0.019808 -36.237652 -2.536135 1.277615 30.950868 1.007320 4.997591 -5.453950 0.301300 0.000000 -42.777900 12.382747 0.471314 -4.481853 3.199958 -8.222673 -30.320943 -1.650075 -4.576852 66.708143 -2.884864 -15.101559 10.433119 -4.477100 -0.000000 -44.603400
-6.147812 17.096595 -2.041489 38.548265 79.964910 62.392006 -8.743165 0.555884 -1.755366 -15.517213 0.417044 -35.645591 -2.529812 1.281188 30.621446 0.937891 4.719492 -4.800950 0.347200 -0.000000 -44.144300 12.237722 0.552039 -4.496094 3.811543 -8.217396 -31.663296 -1.623844 -4.607204 66.887403 -2.858625 -15.070722 8.437232 -4.073900 0.000000 -41.867900
-5.987227 17.148462 -2.014597 38.397981 80.041901 62.326982 -8.895538 0.583359 -1.810819 -15.250556 0.829245 -35.024511 -2.521418 1.280054 30.221088 0.872143 4.453532 -4.109295 0.390900 0.000000 -45.647000 12.077194 0.623670 -4.502210 4.434003 -8.185347 -32.959297 -1.568894 -4.622483 66.808408 -2.779070 -14.639812 6.659804 -3.600900 -0.000000 -39.498800
-5.826492 17.200891 -1.986398 38.233375 80.130036 62.249251 -9.053631 0.607321 -1.859515 -14.944767 1.211387 -34.368645 -2.509909 1.273628 29.745702 0.809747 4.197696 -3.370484 0.432600 -0.000000 -47.235299 11.903304 0.686931 -4.500391 5.064157 -8.132181 -34.208870 -1.487146 -4.623771 66.487584 -2.654150 -13.889066 5.139248 -3.118500 0.000000 -37.659000
-5.665148 17.253313 -1.957093 38.005790 80.225802 62.111908 -9.217747 0.627834 -1.900083 -14.597150 1.562836 -33.682344 -2.494276 1.262506 29.200206 0.749966 3.945582 -2.576624 0.471701 -0.000000 -48.854900 11.716633 0.741929 -4.490397 5.706200 -8.059116 -35.414655 -1.381203 -4.611831 65.940999 -2.494637 -12.907170 3.879260 -2.665800 0.000000 -36.446900
-5.502992 17.304993 -1.926577 37.688827 80.323863 61.887492 -9.385361 0.646515 -1.931874 -14.212409 1.884299 -32.970382 -2.473882 1.247669 28.596280 0.692488 3.692485 -1.722992 0.507200 -0.000000 -50.450100 11.520601 0.789201 -4.471024 6.358152 -7.967699 -36.577320 -1.253528 -4.588141 65.184374 -2.312326 -11.779931 2.849623 -2.260700 -0.000000 -35.881600
-5.339660 17.355307 -1.894614 37.259197 80.418907 61.554163 -9.554081 0.664914 -1.955397 -13.797057 2.180607 -32.242687 -2.448593 1.230670 27.951102 0.637312 3.434092 -0.810049 0.537300 -0.000001 -51.980600 11.317873 0.828896 -4.440382 7.019814 -7.854614 -37.695868 -1.105882 -4.553477 64.228612 -2.118997 -10.586474 1.998326 -1.907900 0.000000 -35.905400
-5.174974 17.403625 -1.860882 36.709969 80.504143 61.105493 -9.720048 0.685059 -1.972185 -13.362379 2.457737 -31.509202 -2.418890 1.213034 27.284291 0.585079 3.170081 0.155322 0.559999 0.000000 -53.422699 11.112057 0.861610 -4.395847 7.685440 -7.714754 -38.766526 -0.939090 -4.508274 63.079535 -1.925137 -9.393362 1.262697 -1.604600 0.000000 -36.405100
-5.008703 17.449380 -1.824989 36.040069 80.572896 60.541964 -9.879903 0.708492 -1.984704 -12.919573 2.724506 -30.780965 -2.385795 1.196265 26.616610 0.536733 2.902364 1.159490 0.573800 0.000000 -54.774300 10.905677 0.887692 -4.334076 8.349161 -7.539009 -39.783135 -0.753196 -4.451777 61.735546 -1.739600 -8.254313 0.583537 -1.346400 -0.000000 -37.234101
-4.840784 17.492086 -1.786498 35.262432 80.617341 59.877200 -10.029539 0.736831 -1.995999 -12.482811 2.988876 -30.065670 -2.350799 1.181292 25.965660 0.493513 2.637256 2.184629 0.577899 0.000000 -56.050100 10.701745 0.907847 -4.251325 8.999741 -7.317549 -40.736959 -0.547888 -4.382610 60.190890 -1.568923 -7.206443 -0.086938 -1.128600 0.000001 -38.222700
-4.671214 17.531326 -1.744963 34.406939 80.629489 59.141398 -10.164530 0.771589 -2.009152 -12.067433 3.256892 -29.367218 -2.315646 1.168343 25.344464 0.456667 2.384760 3.210550 0.573100 0.000000 -57.279999 10.503630 0.923174 -4.143631 9.621179 -7.041979 -41.619298 -0.322906 -4.298862 58.437606 -1.417345 -6.270498 -0.779262 -0.947300 0.000001 -39.188700
-4.499963 17.566843 -1.700212 33.488298 80.604167 58.352012 -10.283495 0.812671 -2.026802 -11.681727 3.534981 -28.691497 -2.281879 1.157558 24.762420 0.426878 2.152765 4.217091 0.561200 -0.000000 -58.505100 10.311556 0.933895 -4.007066 10.203766 -6.700922 -42.422667 -0.078624 -4.197085 56.464258 -1.287484 -5.456138 -1.500693 -0.799200 0.000000 -39.967201
-4.327059 17.598341 -1.652082 32.534852 80.536173 57.539155 -10.384443 0.860325 -2.050872 -11.334842 3.824572 -28.038357 -2.250800 1.148340 24.222571 0.404604 1.951394 5.187187 0.545300 -0.000001 -59.765300 10.127045 0.940802 -3.838043 10.733165 -6.287696 -43.142247 0.183538 -4.073982 54.264151 -1.179906 -4.760167 -2.240675 -0.680800 -0.000000 -40.420600
-4.152537 17.625715 -1.600617 31.559559 80.422870 56.719278 -10.467879 0.913741 -2.082158 -11.028904 4.125540 -27.409386 -2.223173 1.140144 23.724210 0.389642 1.786499 6.109070 0.528500 0.000000 -61.095000 9.949551 0.943977 -3.633284 11.201468 -5.795703 -43.777154 0.461042 -3.925409 51.831927 -1.093782 -4.173311 -2.971858 -0.589001 0.000000 -40.479500
